<svg width="279" height="279" viewBox="0 0 279 279" fill="none" xmlns="http://www.w3.org/2000/svg">
<g filter="url(#filter0_d_49_6)">
<rect x="48" y="48" width="159" height="159" rx="79.5" fill="white"/>
<rect x="49.5" y="49.5" width="156" height="156" rx="78" stroke="white" stroke-width="3"/>
</g>
<path d="M110.938 150.803C110.938 147.213 117.562 137.438 117.562 137.438C117.562 137.438 124.188 147.213 124.188 150.803C124.188 154.397 121.221 157.312 117.562 157.312C113.902 157.312 110.938 154.397 110.938 150.803ZM132.469 150.803C132.469 147.213 139.094 137.438 139.094 137.438C139.094 137.438 145.719 147.213 145.719 150.803C145.719 154.397 142.752 157.312 139.094 157.312C135.433 157.312 132.469 154.397 132.469 150.803Z" fill="#64B5F6"/>
<path d="M99.3438 111.053C99.3438 107.463 105.969 97.6875 105.969 97.6875C105.969 97.6875 112.594 107.463 112.594 111.053C112.594 114.647 109.627 117.562 105.969 117.562C102.308 117.562 99.3438 114.647 99.3438 111.053ZM120.875 111.053C120.875 107.463 127.5 97.6875 127.5 97.6875C127.5 97.6875 134.125 107.463 134.125 111.053C134.125 114.647 131.159 117.562 127.5 117.562C123.84 117.562 120.875 114.647 120.875 111.053ZM142.406 111.053C142.406 107.463 149.031 97.6875 149.031 97.6875C149.031 97.6875 155.656 107.463 155.656 111.053C155.656 114.647 152.69 117.562 149.031 117.562C145.371 117.562 142.406 114.647 142.406 111.053Z" fill="#1565C0"/>
<path d="M97.6875 125.844H157.312V130.812H97.6875V125.844Z" fill="#2196F3"/>
<path d="M87.6461 72.557C93.0914 80.1618 71.6947 84.1643 73.1755 88.5709C74.6563 92.9774 94.5884 89.2669 92.593 96.9511C90.3606 105.547 78.5823 97.5044 76.0479 101.328C73.5139 105.15 85.8093 112.879 79.0056 117.445C71.9363 122.188 70.3203 105.684 65.8131 106.54C61.3059 107.396 63.4371 121.511 54.8423 122.034C46.2602 122.556 49.9608 115.786 47.8369 111.645C44.8376 105.797 37.8007 116.723 32.3797 108.66C28.1053 102.301 39.9771 100.308 39.0537 95.7575C38.131 91.2073 27.5792 92.1197 29.3113 83.636C31.0867 74.9435 42.9253 83.4117 45.4592 79.5892C47.9936 75.766 37.9771 67.5662 42.8994 63.1427C48.9955 57.6639 53.6739 71.0832 58.1811 70.227C62.6882 69.3708 59.4563 57.2934 67.062 58.5531C76.2903 60.0816 64.8892 78.2879 68.3801 81.359C71.8722 84.4298 82.7948 65.7824 87.6461 72.557Z" fill="#E78722"/>
<path d="M52.5099 97.16C51.7419 97.16 51.0753 97.0533 50.5099 96.84C49.9446 96.616 49.4753 96.312 49.1019 95.928C48.7393 95.544 48.4619 95.096 48.2699 94.584C48.0779 94.072 47.9659 93.5227 47.9339 92.936C47.9233 92.648 47.9126 92.3227 47.9019 91.96C47.9019 91.5867 47.9019 91.2133 47.9019 90.84C47.9126 90.456 47.9233 90.1147 47.9339 89.816C47.9659 89.2293 48.0779 88.6853 48.2699 88.184C48.4726 87.672 48.7606 87.2293 49.1339 86.856C49.5179 86.472 49.9873 86.1733 50.5419 85.96C51.1073 85.7467 51.7633 85.64 52.5099 85.64C53.2673 85.64 53.9233 85.7467 54.4779 85.96C55.0326 86.1733 55.4966 86.472 55.8699 86.856C56.2539 87.2293 56.5473 87.672 56.7499 88.184C56.9526 88.6853 57.0646 89.2293 57.0859 89.816C57.1073 90.1147 57.1179 90.456 57.1179 90.84C57.1286 91.2133 57.1286 91.5867 57.1179 91.96C57.1179 92.3227 57.1073 92.648 57.0859 92.936C57.0646 93.5227 56.9526 94.072 56.7499 94.584C56.5579 95.096 56.2753 95.544 55.9019 95.928C55.5393 96.312 55.0753 96.616 54.5099 96.84C53.9553 97.0533 53.2886 97.16 52.5099 97.16ZM52.5099 94.84C53.0646 94.84 53.4646 94.664 53.7099 94.312C53.9659 93.9493 54.0993 93.464 54.1099 92.856C54.1313 92.5467 54.1419 92.2213 54.1419 91.88C54.1526 91.5387 54.1526 91.1973 54.1419 90.856C54.1419 90.5147 54.1313 90.2 54.1099 89.912C54.0993 89.3253 53.9659 88.8507 53.7099 88.488C53.4646 88.1253 53.0646 87.9387 52.5099 87.928C51.9553 87.9387 51.5553 88.1253 51.3099 88.488C51.0646 88.8507 50.9313 89.3253 50.9099 89.912C50.8993 90.2 50.8886 90.5147 50.8779 90.856C50.8779 91.1973 50.8779 91.5387 50.8779 91.88C50.8886 92.2213 50.8993 92.5467 50.9099 92.856C50.9313 93.464 51.0699 93.9493 51.3259 94.312C51.5819 94.664 51.9766 94.84 52.5099 94.84ZM62.3929 97C62.2863 97 62.1903 96.9627 62.1049 96.888C62.0303 96.8133 61.9929 96.7173 61.9929 96.6V88.984L59.8009 90.664C59.7049 90.7387 59.6036 90.7653 59.4969 90.744C59.4009 90.7227 59.3156 90.664 59.2409 90.568L58.2969 89.336C58.2329 89.24 58.2063 89.1387 58.2169 89.032C58.2383 88.9147 58.3023 88.824 58.4089 88.76L62.0889 85.912C62.1529 85.8693 62.2116 85.8427 62.2649 85.832C62.3289 85.8107 62.3983 85.8 62.4729 85.8H64.4729C64.5796 85.8 64.6703 85.8373 64.7449 85.912C64.8303 85.9867 64.8729 86.0827 64.8729 86.2V96.6C64.8729 96.7173 64.8303 96.8133 64.7449 96.888C64.6703 96.9627 64.5796 97 64.4729 97H62.3929Z" fill="white"/>
<defs>
<filter id="filter0_d_49_6" x="0" y="0" width="279" height="279" filterUnits="userSpaceOnUse" color-interpolation-filters="sRGB">
<feFlood flood-opacity="0" result="BackgroundImageFix"/>
<feColorMatrix in="SourceAlpha" type="matrix" values="0 0 0 0 0 0 0 0 0 0 0 0 0 0 0 0 0 0 127 0" result="hardAlpha"/>
<feOffset dx="12" dy="12"/>
<feGaussianBlur stdDeviation="30"/>
<feComposite in2="hardAlpha" operator="out"/>
<feColorMatrix type="matrix" values="0 0 0 0 0.160784 0 0 0 0 0.223529 0 0 0 0 0.356863 0 0 0 0.15 0"/>
<feBlend mode="normal" in2="BackgroundImageFix" result="effect1_dropShadow_49_6"/>
<feBlend mode="normal" in="SourceGraphic" in2="effect1_dropShadow_49_6" result="shape"/>
</filter>
</defs>
</svg>
