<svg width="280" height="279" viewBox="0 0 280 279" fill="none" xmlns="http://www.w3.org/2000/svg">
<g filter="url(#filter0_d_49_7)">
<rect x="48.6699" y="48" width="159" height="159" rx="79.5" fill="white"/>
<rect x="50.1699" y="49.5" width="156" height="156" rx="78" stroke="white" stroke-width="3"/>
</g>
<g clip-path="url(#clip0_49_7)">
<path d="M113.264 144.063H109.951V101H103.326V104.313H100.014V99.3438C100.014 98.35 100.676 97.6875 101.67 97.6875H111.607C112.601 97.6875 113.264 98.35 113.264 99.3438V144.063Z" fill="#90A4AE"/>
<path d="M103.326 104.312H106.639V130.812H103.326V104.312Z" fill="#C7D1D6"/>
<path d="M97.1973 104.312H103.491V130.812H97.1973V104.312Z" fill="#DEE4E7"/>
<path d="M95.0449 130.812H108.295V155.656H95.0449V130.812Z" fill="#90A4AE"/>
<path d="M91.7324 149.031H101.67V155.656H91.7324V149.031Z" fill="#C9D3D8"/>
<path d="M101.67 149.031H104.982V155.656H101.67V149.031Z" fill="#B0BEC5"/>
<path d="M98.3574 132.469C95.7218 132.469 93.1942 133.516 91.3305 135.379C89.4669 137.243 88.4199 139.771 88.4199 142.406C88.4199 145.042 89.4669 147.569 91.3305 149.433C93.1942 151.297 95.7218 152.344 98.3574 152.344C100.993 152.344 103.521 151.297 105.384 149.433C107.248 147.569 108.295 145.042 108.295 142.406C108.295 139.771 107.248 137.243 105.384 135.379C103.521 133.516 100.993 132.469 98.3574 132.469Z" fill="#29B6F6"/>
<path d="M98.3574 135.781C96.6004 135.781 94.9153 136.479 93.6728 137.722C92.4304 138.964 91.7324 140.649 91.7324 142.406C91.7324 144.163 92.4304 145.848 93.6728 147.091C94.9153 148.333 96.6004 149.031 98.3574 149.031C100.114 149.031 101.8 148.333 103.042 147.091C104.284 145.848 104.982 144.163 104.982 142.406C104.982 140.649 104.284 138.964 103.042 137.722C101.8 136.479 100.114 135.781 98.3574 135.781Z" fill="#84D5F9"/>
<path d="M98.3574 135.781C97.6985 135.781 97.0666 136.043 96.6007 136.509C96.1348 136.975 95.873 137.607 95.873 138.266C95.873 138.925 96.1348 139.556 96.6007 140.022C97.0666 140.488 97.6985 140.75 98.3574 140.75C99.0163 140.75 99.6482 140.488 100.114 140.022C100.58 139.556 100.842 138.925 100.842 138.266C100.842 137.607 100.58 136.975 100.114 136.509C99.6482 136.043 99.0163 135.781 98.3574 135.781Z" fill="#B1E4FC"/>
<path d="M133.139 144.063H129.826V105.969H123.201V109.281H119.889V104.313C119.889 103.319 120.551 102.656 121.545 102.656H131.482C132.476 102.656 133.139 103.319 133.139 104.313V144.063Z" fill="#90A4AE"/>
<path d="M123.201 109.281H126.514V130.812H123.201V109.281Z" fill="#C7D1D6"/>
<path d="M117.072 109.281H123.366V130.812H117.072V109.281Z" fill="#DEE4E7"/>
<path d="M114.92 130.812H128.17V155.656H114.92V130.812Z" fill="#90A4AE"/>
<path d="M118.232 132.469C115.597 132.469 113.069 133.516 111.206 135.379C109.342 137.243 108.295 139.771 108.295 142.406C108.295 145.042 109.342 147.569 111.206 149.433C113.069 151.297 115.597 152.344 118.232 152.344C120.868 152.344 123.396 151.297 125.259 149.433C127.123 147.569 128.17 145.042 128.17 142.406C128.17 139.771 127.123 137.243 125.259 135.379C123.396 133.516 120.868 132.469 118.232 132.469Z" fill="#29B6F6"/>
<path d="M118.232 135.781C116.475 135.781 114.79 136.479 113.548 137.722C112.305 138.964 111.607 140.649 111.607 142.406C111.607 144.163 112.305 145.848 113.548 147.091C114.79 148.333 116.475 149.031 118.232 149.031C119.989 149.031 121.675 148.333 122.917 147.091C124.159 145.848 124.857 144.163 124.857 142.406C124.857 140.649 124.159 138.964 122.917 137.722C121.675 136.479 119.989 135.781 118.232 135.781Z" fill="#84D5F9"/>
<path d="M118.232 135.781C117.574 135.781 116.942 136.043 116.476 136.509C116.01 136.975 115.748 137.607 115.748 138.266C115.748 138.925 116.01 139.556 116.476 140.022C116.942 140.488 117.574 140.75 118.232 140.75C118.891 140.75 119.523 140.488 119.989 140.022C120.455 139.556 120.717 138.925 120.717 138.266C120.717 137.607 120.455 136.975 119.989 136.509C119.523 136.043 118.891 135.781 118.232 135.781Z" fill="#B1E4FC"/>
<path d="M153.014 144.063H149.701V101H143.076V104.313H139.764V99.3438C139.764 98.35 140.426 97.6875 141.42 97.6875H151.357C152.351 97.6875 153.014 98.35 153.014 99.3438V144.063Z" fill="#90A4AE"/>
<path d="M143.076 104.312H146.389V130.812H143.076V104.312Z" fill="#C7D1D6"/>
<path d="M136.947 104.312H143.241V130.812H136.947V104.312Z" fill="#DEE4E7"/>
<path d="M134.795 130.812H148.045V155.656H134.795V130.812Z" fill="#90A4AE"/>
<path d="M138.107 132.469C135.472 132.469 132.944 133.516 131.081 135.379C129.217 137.243 128.17 139.771 128.17 142.406C128.17 145.042 129.217 147.569 131.081 149.433C132.944 151.297 135.472 152.344 138.107 152.344C140.743 152.344 143.271 151.297 145.134 149.433C146.998 147.569 148.045 145.042 148.045 142.406C148.045 139.771 146.998 137.243 145.134 135.379C143.271 133.516 140.743 132.469 138.107 132.469Z" fill="#29B6F6"/>
<path d="M138.107 135.781C136.35 135.781 134.665 136.479 133.423 137.722C132.18 138.964 131.482 140.649 131.482 142.406C131.482 144.163 132.18 145.848 133.423 147.091C134.665 148.333 136.35 149.031 138.107 149.031C139.864 149.031 141.55 148.333 142.792 147.091C144.034 145.848 144.732 144.163 144.732 142.406C144.732 140.649 144.034 138.964 142.792 137.722C141.55 136.479 139.864 135.781 138.107 135.781Z" fill="#84D5F9"/>
<path d="M138.107 135.781C137.449 135.781 136.817 136.043 136.351 136.509C135.885 136.975 135.623 137.607 135.623 138.266C135.623 138.925 135.885 139.556 136.351 140.022C136.817 140.488 137.449 140.75 138.107 140.75C138.766 140.75 139.398 140.488 139.864 140.022C140.33 139.556 140.592 138.925 140.592 138.266C140.592 137.607 140.33 136.975 139.864 136.509C139.398 136.043 138.766 135.781 138.107 135.781Z" fill="#B1E4FC"/>
<path d="M148.045 130.812H167.92V155.656H148.045V130.812Z" fill="#C9D3D8"/>
<path d="M164.607 132.469H167.92V155.656H164.607V132.469Z" fill="#B0BEC5"/>
<path d="M162.951 107.625H167.92V130.813H162.951V107.625ZM148.045 137.438H167.92V140.75H148.045V137.438Z" fill="#FF5722"/>
<path d="M162.951 124.188H167.92V127.5H162.951V124.188ZM162.951 117.563H167.92V120.875H162.951V117.563ZM162.951 110.938H167.92V114.25H162.951V110.938Z" fill="#FFAB91"/>
<path d="M148.045 130.812H167.92V134.125H148.045V130.812ZM88.4199 155.656H167.92V158.969H88.4199V155.656Z" fill="#90A4AE"/>
</g>
<path d="M85.8815 112.167C79.9452 119.395 70.5412 99.7632 66.668 102.334C62.7949 104.905 71.5377 123.197 63.599 123.259C54.7177 123.327 59.4383 109.869 55.0894 108.41C50.7413 106.952 46.4583 120.829 40.2869 115.439C33.8752 109.838 49.3991 104.005 47.4055 99.8733C45.4119 95.7414 32.3296 101.453 29.6002 93.2864C26.8751 85.1318 34.3718 86.9542 37.8224 83.8308C42.6948 79.4201 30.3195 75.4509 36.7048 68.1277C41.7404 62.3533 46.7383 73.3047 50.8949 71.2349C55.0512 69.166 51.4389 59.2099 60.0818 58.6873C68.9377 58.1524 63.822 71.7793 68.1701 73.2375C72.519 74.696 77.847 62.8986 83.3937 66.5083C90.2636 70.9787 78.5124 78.9708 80.506 83.1028C82.4996 87.2348 93.3289 80.9871 94.0806 88.6597C94.9927 97.9692 74.456 91.6686 72.393 95.8355C70.3306 100.003 91.1696 105.727 85.8815 112.167Z" fill="#A54CF6"/>
<path d="M51.4533 97.16C50.6853 97.16 50.0186 97.0533 49.4533 96.84C48.888 96.616 48.4186 96.312 48.0453 95.928C47.6826 95.544 47.4053 95.096 47.2133 94.584C47.0213 94.072 46.9093 93.5227 46.8773 92.936C46.8666 92.648 46.856 92.3227 46.8453 91.96C46.8453 91.5867 46.8453 91.2133 46.8453 90.84C46.856 90.456 46.8666 90.1147 46.8773 89.816C46.9093 89.2293 47.0213 88.6853 47.2133 88.184C47.416 87.672 47.704 87.2293 48.0773 86.856C48.4613 86.472 48.9306 86.1733 49.4853 85.96C50.0506 85.7467 50.7066 85.64 51.4533 85.64C52.2106 85.64 52.8666 85.7467 53.4213 85.96C53.976 86.1733 54.44 86.472 54.8133 86.856C55.1973 87.2293 55.4906 87.672 55.6933 88.184C55.896 88.6853 56.008 89.2293 56.0293 89.816C56.0506 90.1147 56.0613 90.456 56.0613 90.84C56.072 91.2133 56.072 91.5867 56.0613 91.96C56.0613 92.3227 56.0506 92.648 56.0293 92.936C56.008 93.5227 55.896 94.072 55.6933 94.584C55.5013 95.096 55.2186 95.544 54.8453 95.928C54.4826 96.312 54.0186 96.616 53.4533 96.84C52.8986 97.0533 52.232 97.16 51.4533 97.16ZM51.4533 94.84C52.008 94.84 52.408 94.664 52.6533 94.312C52.9093 93.9493 53.0426 93.464 53.0533 92.856C53.0746 92.5467 53.0853 92.2213 53.0853 91.88C53.096 91.5387 53.096 91.1973 53.0853 90.856C53.0853 90.5147 53.0746 90.2 53.0533 89.912C53.0426 89.3253 52.9093 88.8507 52.6533 88.488C52.408 88.1253 52.008 87.9387 51.4533 87.928C50.8986 87.9387 50.4986 88.1253 50.2533 88.488C50.008 88.8507 49.8746 89.3253 49.8533 89.912C49.8426 90.2 49.832 90.5147 49.8213 90.856C49.8213 91.1973 49.8213 91.5387 49.8213 91.88C49.832 92.2213 49.8426 92.5467 49.8533 92.856C49.8746 93.464 50.0133 93.9493 50.2693 94.312C50.5253 94.664 50.92 94.84 51.4533 94.84ZM57.9763 97C57.859 97 57.7576 96.9627 57.6723 96.888C57.5976 96.8133 57.5603 96.7173 57.5603 96.6V95.464C57.5603 95.3893 57.5816 95.2773 57.6243 95.128C57.667 94.968 57.779 94.8187 57.9603 94.68L59.6243 93.048C60.4776 92.3973 61.1763 91.848 61.7203 91.4C62.275 90.9413 62.6856 90.536 62.9523 90.184C63.219 89.832 63.3523 89.5013 63.3523 89.192C63.3523 88.8293 63.2563 88.5307 63.0643 88.296C62.883 88.0507 62.563 87.928 62.1043 87.928C61.795 87.928 61.5336 87.9973 61.3203 88.136C61.1176 88.264 60.963 88.4347 60.8563 88.648C60.7496 88.8613 60.675 89.08 60.6323 89.304C60.5896 89.4427 60.515 89.5387 60.4083 89.592C60.3123 89.6453 60.2056 89.672 60.0883 89.672H58.0883C57.9923 89.672 57.9123 89.64 57.8483 89.576C57.7843 89.512 57.7523 89.432 57.7523 89.336C57.763 88.824 57.8696 88.344 58.0723 87.896C58.2856 87.448 58.579 87.0533 58.9523 86.712C59.3363 86.36 59.7896 86.088 60.3123 85.896C60.8456 85.704 61.443 85.608 62.1043 85.608C63.011 85.608 63.779 85.752 64.4083 86.04C65.0483 86.328 65.5336 86.7333 65.8643 87.256C66.195 87.768 66.3603 88.3707 66.3603 89.064C66.3603 89.5867 66.243 90.0773 66.0083 90.536C65.7843 90.984 65.459 91.416 65.0323 91.832C64.6163 92.2373 64.1203 92.6587 63.5443 93.096L62.0723 94.584H66.1843C66.3016 94.584 66.3976 94.6213 66.4723 94.696C66.5576 94.7707 66.6003 94.8667 66.6003 94.984V96.6C66.6003 96.7173 66.5576 96.8133 66.4723 96.888C66.3976 96.9627 66.3016 97 66.1843 97H57.9763Z" fill="white"/>
<defs>
<filter id="filter0_d_49_7" x="0.669922" y="0" width="279" height="279" filterUnits="userSpaceOnUse" color-interpolation-filters="sRGB">
<feFlood flood-opacity="0" result="BackgroundImageFix"/>
<feColorMatrix in="SourceAlpha" type="matrix" values="0 0 0 0 0 0 0 0 0 0 0 0 0 0 0 0 0 0 127 0" result="hardAlpha"/>
<feOffset dx="12" dy="12"/>
<feGaussianBlur stdDeviation="30"/>
<feComposite in2="hardAlpha" operator="out"/>
<feColorMatrix type="matrix" values="0 0 0 0 0.160784 0 0 0 0 0.223529 0 0 0 0 0.356863 0 0 0 0.15 0"/>
<feBlend mode="normal" in2="BackgroundImageFix" result="effect1_dropShadow_49_7"/>
<feBlend mode="normal" in="SourceGraphic" in2="effect1_dropShadow_49_7" result="shape"/>
</filter>
<clipPath id="clip0_49_7">
<rect width="79.5" height="79.5" fill="white" transform="translate(88.4199 87.75)"/>
</clipPath>
</defs>
</svg>
