<svg width="280" height="279" viewBox="0 0 280 279" fill="none" xmlns="http://www.w3.org/2000/svg">
<g filter="url(#filter0_d_49_8)">
<rect x="48.3398" y="47.9995" width="159" height="159" rx="79.5" fill="white"/>
<rect x="49.8398" y="49.4995" width="156" height="156" rx="78" stroke="white" stroke-width="3"/>
</g>
<path d="M138.256 147.375H117.902V144.062H138.256C140.732 144.062 142.746 142.048 142.746 139.57V117.562H146.059V139.572C146.059 143.875 142.559 147.375 138.256 147.375Z" fill="#B0BEC5"/>
<path d="M144.402 94.3745L149.272 102.495L158.456 100.196L156.157 109.38L164.277 114.25L156.157 119.119L158.456 128.303L149.272 126.004L144.402 134.125L139.533 126.004L130.349 128.303L132.648 119.119L124.527 114.25L132.648 109.38L130.349 100.196L139.533 102.495L144.402 94.3745Z" fill="#7755FF"/>
<path d="M118.547 155.656H109.621V135.781H118.547C121.849 135.781 124.527 138.459 124.527 141.761V149.673C124.527 152.978 121.849 155.656 118.547 155.656Z" fill="#90A4AE"/>
<path d="M109.621 134.125H104.652V157.312H109.621V134.125Z" fill="#B0BEC5"/>
<path d="M96.3711 142.406H104.652V139.093H96.3711C95.4568 139.093 94.7148 139.835 94.7148 140.75C94.7148 141.664 95.4568 142.406 96.3711 142.406Z" fill="#F9A825"/>
<path d="M96.3711 152.343H104.652V149.031H96.3711C95.4568 149.031 94.7148 149.773 94.7148 150.687C94.7148 151.601 95.4568 152.343 96.3711 152.343Z" fill="#F9A825"/>
<path d="M144.402 125.843C150.805 125.843 155.996 120.653 155.996 114.25C155.996 107.846 150.805 102.656 144.402 102.656C137.999 102.656 132.809 107.846 132.809 114.25C132.809 120.653 137.999 125.843 144.402 125.843Z" fill="#5C3DD9"/>
<path d="M116.246 147.375C117.161 147.375 117.902 146.633 117.902 145.718C117.902 144.804 117.161 144.062 116.246 144.062C115.331 144.062 114.59 144.804 114.59 145.718C114.59 146.633 115.331 147.375 116.246 147.375Z" fill="#78909C"/>
<path d="M50.3552 59.953C59.1102 56.6615 57.4385 78.365 62.0781 78.0752C66.7178 77.7853 68.2925 57.5721 75.1984 61.4883C82.9241 65.8695 72.1066 75.1648 75.1436 78.6024C78.18 82.0393 88.8275 72.1632 91.4771 79.9169C94.2295 87.973 77.8691 85.2623 77.5296 89.8375C77.1901 94.4127 91.3756 96.0074 89.656 104.445C87.9386 112.869 82.3576 107.543 77.8075 108.522C71.3826 109.906 80.1153 119.531 70.9238 122.68C63.6757 125.163 64.823 113.18 60.1885 112.894C55.5545 112.608 53.7048 123.036 45.9585 119.167C38.0217 115.203 49.2654 105.959 46.229 102.522C43.192 99.0849 32.6791 106.638 29.6803 100.738C25.9661 93.4319 40.139 92.3861 40.4785 87.8109C40.8179 83.2357 28.3156 83.2317 31.5009 76.2112C35.3658 67.693 50.0008 83.4177 53.8708 80.8406C57.7409 78.2623 42.5558 62.8856 50.3552 59.953Z" fill="#4A93FF"/>
<path d="M51.0529 97.1595C50.2849 97.1595 49.6182 97.0528 49.0529 96.8395C48.4876 96.6155 48.0182 96.3115 47.6449 95.9275C47.2822 95.5435 47.0049 95.0955 46.8129 94.5835C46.6209 94.0715 46.5089 93.5222 46.4769 92.9355C46.4662 92.6475 46.4556 92.3222 46.4449 91.9595C46.4449 91.5862 46.4449 91.2128 46.4449 90.8395C46.4556 90.4555 46.4662 90.1142 46.4769 89.8155C46.5089 89.2288 46.6209 88.6848 46.8129 88.1835C47.0156 87.6715 47.3036 87.2288 47.6769 86.8555C48.0609 86.4715 48.5302 86.1728 49.0849 85.9595C49.6502 85.7462 50.3062 85.6395 51.0529 85.6395C51.8102 85.6395 52.4662 85.7462 53.0209 85.9595C53.5756 86.1728 54.0396 86.4715 54.4129 86.8555C54.7969 87.2288 55.0902 87.6715 55.2929 88.1835C55.4956 88.6848 55.6076 89.2288 55.6289 89.8155C55.6502 90.1142 55.6609 90.4555 55.6609 90.8395C55.6716 91.2128 55.6716 91.5862 55.6609 91.9595C55.6609 92.3222 55.6502 92.6475 55.6289 92.9355C55.6076 93.5222 55.4956 94.0715 55.2929 94.5835C55.1009 95.0955 54.8182 95.5435 54.4449 95.9275C54.0822 96.3115 53.6182 96.6155 53.0529 96.8395C52.4982 97.0528 51.8316 97.1595 51.0529 97.1595ZM51.0529 94.8395C51.6076 94.8395 52.0076 94.6635 52.2529 94.3115C52.5089 93.9488 52.6422 93.4635 52.6529 92.8555C52.6742 92.5462 52.6849 92.2208 52.6849 91.8795C52.6956 91.5382 52.6956 91.1968 52.6849 90.8555C52.6849 90.5142 52.6742 90.1995 52.6529 89.9115C52.6422 89.3248 52.5089 88.8502 52.2529 88.4875C52.0076 88.1248 51.6076 87.9382 51.0529 87.9275C50.4982 87.9382 50.0982 88.1248 49.8529 88.4875C49.6076 88.8502 49.4742 89.3248 49.4529 89.9115C49.4422 90.1995 49.4316 90.5142 49.4209 90.8555C49.4209 91.1968 49.4209 91.5382 49.4209 91.8795C49.4316 92.2208 49.4422 92.5462 49.4529 92.8555C49.4742 93.4635 49.6129 93.9488 49.8689 94.3115C50.1249 94.6635 50.5196 94.8395 51.0529 94.8395ZM61.7039 97.1595C60.8719 97.1595 60.1626 97.0635 59.5759 96.8715C58.9892 96.6688 58.5092 96.4128 58.1359 96.1035C57.7626 95.7835 57.4852 95.4475 57.3039 95.0955C57.1226 94.7328 57.0266 94.3862 57.0159 94.0555C57.0159 93.9595 57.0479 93.8795 57.1119 93.8155C57.1866 93.7515 57.2719 93.7195 57.3679 93.7195H59.4479C59.5759 93.7195 59.6772 93.7462 59.7519 93.7995C59.8266 93.8422 59.8959 93.9168 59.9599 94.0235C60.0452 94.2262 60.1679 94.3915 60.3279 94.5195C60.4986 94.6475 60.7012 94.7382 60.9359 94.7915C61.1706 94.8342 61.4266 94.8555 61.7039 94.8555C62.2479 94.8555 62.6692 94.7328 62.9679 94.4875C63.2772 94.2315 63.4319 93.8848 63.4319 93.4475C63.4319 92.9888 63.2879 92.6635 62.9999 92.4715C62.7119 92.2688 62.3012 92.1675 61.7679 92.1675H59.9919C59.8746 92.1675 59.7786 92.1302 59.7039 92.0555C59.6292 91.9808 59.5919 91.8848 59.5919 91.7675V90.8715C59.5919 90.7435 59.6186 90.6315 59.6719 90.5355C59.7252 90.4395 59.7839 90.3702 59.8479 90.3275L62.4719 88.1035H58.0239C57.9172 88.1035 57.8212 88.0662 57.7359 87.9915C57.6612 87.9168 57.6239 87.8208 57.6239 87.7035V86.1995C57.6239 86.0822 57.6612 85.9862 57.7359 85.9115C57.8212 85.8368 57.9172 85.7995 58.0239 85.7995H65.3839C65.5012 85.7995 65.5972 85.8368 65.6719 85.9115C65.7572 85.9862 65.7999 86.0822 65.7999 86.1995V87.5595C65.7999 87.6768 65.7732 87.7835 65.7199 87.8795C65.6666 87.9648 65.6079 88.0342 65.5439 88.0875L63.1119 90.3435L63.2239 90.3755C63.8319 90.4502 64.3759 90.6155 64.8559 90.8715C65.3359 91.1168 65.7146 91.4635 65.9919 91.9115C66.2692 92.3595 66.4079 92.9302 66.4079 93.6235C66.4079 94.3488 66.1999 94.9782 65.7839 95.5115C65.3786 96.0342 64.8239 96.4395 64.1199 96.7275C63.4159 97.0155 62.6106 97.1595 61.7039 97.1595Z" fill="white"/>
<defs>
<filter id="filter0_d_49_8" x="0.339844" y="-0.000488281" width="279" height="279" filterUnits="userSpaceOnUse" color-interpolation-filters="sRGB">
<feFlood flood-opacity="0" result="BackgroundImageFix"/>
<feColorMatrix in="SourceAlpha" type="matrix" values="0 0 0 0 0 0 0 0 0 0 0 0 0 0 0 0 0 0 127 0" result="hardAlpha"/>
<feOffset dx="12" dy="12"/>
<feGaussianBlur stdDeviation="30"/>
<feComposite in2="hardAlpha" operator="out"/>
<feColorMatrix type="matrix" values="0 0 0 0 0.160784 0 0 0 0 0.223529 0 0 0 0 0.356863 0 0 0 0.15 0"/>
<feBlend mode="normal" in2="BackgroundImageFix" result="effect1_dropShadow_49_8"/>
<feBlend mode="normal" in="SourceGraphic" in2="effect1_dropShadow_49_8" result="shape"/>
</filter>
</defs>
</svg>
